<?xml version="1.0" encoding="UTF-8"?><svg id="b" xmlns="http://www.w3.org/2000/svg" width="475.108" height="368.713" viewBox="0 0 475.108 368.713"><path d="M425.952,224.27c-.818,0-1.645,.026-2.475,.077,1.91-6.717,2.877-13.655,2.877-20.667,0-42.11-34.259-76.369-76.369-76.369-13.342,0-26.389,3.481-37.944,10.096-1.614-22.727-11.478-43.874-27.996-59.86-17.371-16.812-40.219-26.07-64.336-26.07-51.042,0-92.567,41.525-92.567,92.567,0,.595,.007,1.188,.021,1.783-7.165-2.8-14.696-4.217-22.436-4.217-34.226,0-62.071,27.845-62.071,62.071,0,7.07,1.202,14.013,3.577,20.68-24.27,1.515-43.56,21.755-43.56,46.394,0,25.631,20.853,46.483,46.483,46.483H426.131l6.492-.025v-.47c22.822-3.28,39.813-22.742,39.813-45.988,0-25.631-20.853-46.484-46.484-46.484Zm-1.949,79.968H49.156c-18.463,0-33.483-15.021-33.483-33.483s15.021-33.484,33.483-33.484c1.982,0,4.047,.21,6.313,.644l14.003,2.677-7.163-12.327c-4.353-7.492-6.654-15.993-6.654-24.583,0-27.058,22.013-49.071,49.071-49.071,9.381,0,18.534,2.697,26.47,7.799l12.084,7.769-2.142-14.206c-.68-4.51-.997-8.301-.997-11.928,0-43.874,35.693-79.567,79.567-79.567s79.567,35.694,79.567,79.567c0,1.377-.099,2.792-.205,4.297l-1.079,16.109,11.635-9.623c11.316-9.36,25.649-14.515,40.357-14.515,34.942,0,63.369,28.427,63.369,63.369,0,9.179-1.988,18.123-5.908,26.582l-6.339,13.679,14.298-4.781c3.803-1.271,7.253-1.89,10.547-1.89,18.463,0,33.484,15.021,33.484,33.484s-14.957,33.387-33.349,33.466l-2.084,.017Z" fill="#1274cc"/><g><path d="M249.774,289.476h-24.441v-13.697c-4.903-1.21-9.549-3.135-13.877-5.751l-9.688,9.686-17.28-17.28,9.685-9.686c-2.616-4.329-4.542-8.975-5.753-13.878h-13.695v-24.442h13.697c1.21-4.9,3.136-9.545,5.753-13.876l-9.688-9.688,17.281-17.28,9.688,9.687c4.331-2.616,8.976-4.542,13.876-5.753v-13.699h24.441v13.699c4.899,1.21,9.544,3.135,13.875,5.751l9.688-9.691,17.285,17.285-9.689,9.687c2.616,4.329,4.542,8.974,5.752,13.876h13.697v24.442h-13.698c-1.21,4.902-3.136,9.548-5.751,13.876l9.69,9.687-17.285,17.285-9.691-9.691c-4.329,2.616-8.974,4.542-13.873,5.752v13.697Zm-16.057-8.384h7.673v-12.237l3.472-.605c6.126-1.068,11.824-3.431,16.935-7.021l2.883-2.025,8.658,8.658,5.427-5.427-8.657-8.654,2.026-2.883c3.588-5.106,5.95-10.805,7.02-16.939l.606-3.472h12.238v-7.674h-12.236l-.605-3.472c-1.069-6.132-3.432-11.831-7.021-16.939l-2.026-2.883,8.657-8.655-5.427-5.427-8.653,8.655-2.883-2.024c-5.113-3.589-10.813-5.951-16.941-7.02l-3.472-.606v-12.239h-7.673v12.239l-3.472,.606c-6.129,1.069-11.828,3.432-16.94,7.022l-2.882,2.025-8.654-8.653-5.423,5.423,8.654,8.654-2.025,2.882c-3.591,5.112-5.953,10.811-7.022,16.94l-.605,3.472h-12.237v7.674h12.235l.605,3.472c1.069,6.134,3.432,11.833,7.021,16.939l2.026,2.883-8.653,8.653,5.424,5.424,8.654-8.652,2.883,2.025c5.106,3.588,10.805,5.95,16.938,7.019l3.472,.605v12.237Z" fill="#1274cc"/><path d="M237.554,255.065c-15.669,0-28.417-12.748-28.417-28.417s12.748-28.416,28.417-28.416,28.416,12.747,28.416,28.416-12.747,28.417-28.416,28.417Zm0-48.448c-11.046,0-20.032,8.986-20.032,20.032s8.986,20.032,20.032,20.032,20.031-8.986,20.031-20.032-8.986-20.032-20.031-20.032Z" fill="#1274cc"/></g></svg>